<svg xmlns="http://www.w3.org/2000/svg" viewBox="0 0 48 48" width="48" height="48">
  <defs>
    <linearGradient id="bg" x1="0%" y1="0%" x2="100%" y2="100%">
      <stop offset="0%" stop-color="#60a5fa"/>
      <stop offset="50%" stop-color="#38bdf8"/>
      <stop offset="100%" stop-color="#4ade80"/>
    </linearGradient>
  </defs>
  <!-- 圆角方形背景 -->
  <rect x="0" y="0" width="48" height="48" rx="12" ry="12" fill="url(#bg)"/>
  <!-- 后方小气泡 -->
  <path d="M35 18 C35 16 36 15 38 15 L42 15 C44 15 45 16 45 18 L45 22 C45 24 44 25 42 25 L39 25 L36 28 Z"
        fill="white" opacity="0.35"/>
  <!-- 前方主气泡 -->
  <path d="M8 12 C8 10 10 8 13 8 L31 8 C34 8 36 10 36 12 L36 24 C36 26 34 28 31 28 L22 28 L14 35 L14 28 L13 28 C10 28 8 26 8 24 Z"
        fill="white"/>
  <!-- 消息横线 -->
  <rect x="14" y="15" width="10" height="2" rx="1" fill="#60a5fa" opacity="0.3"/>
  <rect x="14" y="20" width="16" height="2" rx="1" fill="#38bdf8" opacity="0.3"/>
  <rect x="14" y="25" width="12" height="2" rx="1" fill="#4ade80" opacity="0.3"/>
</svg>
